<svg width="190" height="32" viewBox="0 0 190 32" fill="none" xmlns="http://www.w3.org/2000/svg">
<g clip-path="url(#clip0_2_67)">
<path fill-rule="evenodd" clip-rule="evenodd" d="M13.3693 17.5297V31.1044H17.3693V17.5297H30.7385V13.5297H17.3693V0H13.3693V13.5297H0V17.5297H13.3693ZM66.9157 0.807209V16.3813C66.9674 18.4079 66.6069 20.4242 65.8554 22.3114C65.104 24.1986 63.9768 25.9186 62.5403 27.37C61.1038 28.8213 59.387 29.9747 57.491 30.7623C55.5951 31.5498 53.5583 31.9555 51.5008 31.9555C49.4433 31.9555 47.4065 31.5498 45.5106 30.7623C43.6146 29.9747 41.8978 28.8213 40.4613 27.37C39.0248 25.9186 37.8976 24.1986 37.1462 22.3114C36.3947 20.4242 36.0342 18.4079 36.0859 16.3813V0.807209H41.591V16.3813C41.5578 17.6841 41.7896 18.9803 42.2727 20.1935C42.7558 21.4067 43.4805 22.5123 44.404 23.4453C45.3275 24.3783 46.4311 25.1198 47.6499 25.6261C48.8688 26.1323 50.1781 26.3931 51.5008 26.3931C52.8235 26.3931 54.1328 26.1323 55.3517 25.6261C56.5705 25.1198 57.6741 24.3783 58.5976 23.4453C59.5211 22.5123 60.2458 21.4067 60.7289 20.1935C61.212 18.9803 61.4438 17.6841 61.4106 16.3813V0.807209H66.9157ZM96.7285 26.4378V32H81.0928C79.5916 32.004 78.1114 31.653 76.7764 30.9765C74.8243 29.9909 73.2597 28.3945 72.3284 26.4378C71.6568 25.0797 71.3103 23.5879 71.3155 22.0771V0.851692H76.8205V22.6108C76.942 23.5567 77.3732 24.4377 78.0487 25.1203C78.7242 25.8028 79.6072 26.2498 80.5638 26.3933L96.7285 26.4378ZM123.68 6.41393V0.851692H92.8939V6.41393H105.534V32H111.039V6.41393H123.68ZM153.008 26.4377L155.826 31.9999H149.661L146.842 26.4377L143.891 20.6086L143.758 20.3417C143.284 19.5344 142.604 18.8633 141.785 18.3949C140.966 17.9266 140.037 17.6773 139.09 17.6718H133.584V31.9999H128.079V0.851692H147.547C148.64 0.851994 149.721 1.06882 150.728 1.48928C151.734 1.90973 152.644 2.52523 153.404 3.29919C154.96 4.90589 155.827 7.0413 155.826 9.26176C155.835 10.8581 155.385 12.4242 154.527 13.7787C153.67 15.1332 152.441 16.2206 150.982 16.9151C150.234 17.271 149.43 17.4969 148.604 17.5829L153.008 26.4377ZM147.547 12.1096C147.944 12.111 148.336 12.0195 148.691 11.8427C149.192 11.6161 149.616 11.2523 149.913 10.7946C150.21 10.337 150.367 9.80485 150.365 9.26171C150.364 8.49887 150.064 7.76602 149.528 7.21504C149.27 6.9572 148.961 6.75337 148.62 6.61572C148.28 6.47807 147.915 6.40943 147.547 6.41388H133.584V12.154L147.547 12.1096ZM183.834 31.9555H190L187.181 26.3933L174.277 0.807209L161.373 26.3933L158.554 31.9555H164.719L167.538 26.3933L174.277 13.0442L181.016 26.3933L183.834 31.9555Z" fill="url(#paint0_linear_2_67)"/>
</g>
<defs>
<linearGradient id="paint0_linear_2_67" x1="0.112132" y1="15.7152" x2="190.061" y2="15.7152" gradientUnits="userSpaceOnUse">
<stop stop-color="#283B92"/>
<stop offset="0.496896" stop-color="#0A75BA"/>
<stop offset="1" stop-color="#B44B9A"/>
</linearGradient>
<clipPath id="clip0_2_67">
<rect width="190" height="32" fill="white"/>
</clipPath>
</defs>
</svg>
