<svg width="631" height="419" viewBox="0 0 631 419" fill="none" xmlns="http://www.w3.org/2000/svg">
<g clip-path="url(#clip0_801_1147)">
<path d="M319.66 117.764C314.033 108.459 307.366 98.5232 296.926 95.4847C284.834 91.966 272.413 98.9561 261.878 105.854C230.37 126.483 200.027 148.839 170.988 172.82L171.02 173.181C193.628 171.622 216.235 170.063 238.843 168.504C255.177 167.378 272.072 166.096 286.507 158.369C291.984 155.437 297.324 151.52 303.531 151.247C311.242 150.908 317.966 156.294 323.25 161.921C354.507 195.205 363.553 246.105 398.62 275.348C376.508 220.815 350.105 168.122 319.66 117.764V117.764Z" fill="#F2F2F2"/>
<path d="M511.792 400.078C508.336 395.713 506.924 394.691 503.514 390.286C475.752 354.38 449.658 317.261 425.232 278.93C408.641 252.896 392.873 226.363 377.927 199.33C370.812 186.478 363.891 173.525 357.166 160.471C351.948 150.35 346.845 140.168 341.86 129.925C340.434 127 339.048 124.061 337.67 121.115C334.422 114.188 331.234 107.228 327.811 100.395C323.91 92.6072 319.162 84.4428 311.999 79.2106C308.74 76.7317 304.842 75.2318 300.762 74.8863C294.931 74.5097 289.551 76.9173 284.493 79.5468C247.491 98.8415 212.85 123.032 181.517 150.559C150.104 178.147 122.026 209.315 97.8549 243.427C97.1155 244.483 95.3668 243.474 96.1132 242.412C99.0522 238.255 102.049 234.144 105.105 230.077C143.098 179.548 189.682 136.096 242.73 101.706C251.654 95.9227 260.747 90.4103 270.007 85.1691C274.675 82.5261 279.362 79.9167 284.13 77.4687C288.804 75.0678 293.768 72.909 299.107 72.8283C317.279 72.5459 326.688 93.125 333.15 106.972C335.181 111.33 337.237 115.675 339.317 120.006C347.179 136.449 355.344 152.742 363.811 168.885C369.036 178.851 374.376 188.76 379.83 198.61C396.805 229.284 414.846 259.337 433.955 288.768C459.269 327.755 484.381 362.194 513.218 398.652C514.012 399.661 512.593 401.1 511.792 400.078Z" fill="#E4E4E4"/>
<path d="M179.721 140.397C178.665 139.22 177.616 138.043 176.554 136.866C168.174 127.599 159.183 118.439 147.675 113.126C142.189 110.513 136.199 109.124 130.123 109.057C123.841 109.077 117.701 110.725 111.898 113.032C109.154 114.128 106.47 115.372 103.827 116.697C100.807 118.217 97.8415 119.838 94.8894 121.472C89.3477 124.539 83.8778 127.74 78.4799 131.075C67.7396 137.713 57.3356 144.858 47.268 152.509C42.0491 156.477 36.9378 160.575 31.9343 164.802C27.2805 168.73 22.7209 172.763 18.2553 176.901C17.3004 177.782 15.8746 176.356 16.8295 175.475C18.0064 174.379 19.1968 173.29 20.3872 172.214C23.7498 169.174 27.1662 166.192 30.6366 163.269C36.9648 157.929 43.4569 152.796 50.1128 147.868C60.463 140.202 71.1695 133.055 82.2323 126.428C87.7606 123.12 93.3649 119.95 99.0454 116.919C100.76 116.004 102.496 115.11 104.251 114.262C108.234 112.254 112.372 110.569 116.625 109.225C122.65 107.276 129.025 106.65 135.315 107.389C141.387 108.273 147.238 110.297 152.558 113.355C163.856 119.67 172.619 129.434 181.147 138.964C182.008 139.933 180.589 141.365 179.721 140.397Z" fill="#E4E4E4"/>
<path d="M411.219 236.431L438.292 226.529L451.734 221.612C456.112 220.011 460.479 218.188 465.005 217.042C468.938 215.918 473.114 215.971 477.017 217.195C480.498 218.483 483.684 220.458 486.386 223.002C489.146 225.545 491.715 228.287 494.07 231.209C496.997 234.726 499.88 238.28 502.777 241.822C514.73 256.441 526.606 271.123 538.403 285.869C550.2 300.614 561.918 315.423 573.557 330.293C585.225 345.2 596.812 360.17 608.32 375.202C609.729 377.043 611.138 378.886 612.545 380.729C613.322 381.747 615.076 380.743 614.287 379.711C602.695 364.528 591.022 349.407 579.268 334.348C567.486 319.253 555.622 304.223 543.676 289.256C531.731 274.29 519.705 259.388 507.598 244.552C504.582 240.856 501.561 237.164 498.535 233.476C495.982 230.364 493.459 227.22 490.659 224.324C485.52 219.009 479.099 214.312 471.413 214.185C466.894 214.11 462.521 215.544 458.323 217.062C453.796 218.7 449.281 220.368 444.761 222.021L417.498 231.993L410.682 234.486C409.473 234.928 409.995 236.879 411.219 236.431L411.219 236.431Z" fill="#E4E4E4"/>
<path d="M144.112 124.787C130.354 117.716 112.735 119.101 100.092 127.935C124.207 132.095 148.058 137.662 171.524 144.607C161.779 138.896 154.157 129.95 144.112 124.787Z" fill="#F2F2F2"/>
<path d="M99.9572 127.911L97.3086 130.064C98.2045 129.31 99.1359 128.604 100.093 127.935C100.047 127.927 100.002 127.918 99.9572 127.911Z" fill="#F2F2F2"/>
<path d="M485.366 236.53C482.701 233.286 479.819 229.889 475.833 228.572L472.111 228.718C500.442 278.779 538.704 322.522 584.55 357.262C551.488 317.018 518.427 276.774 485.366 236.53Z" fill="#F2F2F2"/>
<path d="M253.938 209.768C255.66 216.026 259.54 221.472 264.892 225.144C266.961 226.553 269.408 227.904 270.116 230.305C270.489 231.835 270.259 233.45 269.475 234.816C268.693 236.165 267.741 237.408 266.643 238.515L266.542 238.89C261.408 235.848 256.524 231.999 253.688 226.748C250.852 221.497 250.456 214.615 253.938 209.768" fill="#F2F2F2"/>
<path d="M424.868 358.691C426.59 364.948 430.47 370.395 435.821 374.067C437.89 375.475 440.338 376.827 441.046 379.227C441.418 380.758 441.189 382.373 440.405 383.739C439.623 385.088 438.671 386.331 437.572 387.437L437.472 387.813C432.338 384.77 427.454 380.922 424.618 375.671C421.782 370.42 421.386 363.538 424.868 358.691" fill="#F2F2F2"/>
<path d="M83.7409 348.421C85.4631 354.678 89.3432 360.124 94.6945 363.796C96.7634 365.205 99.2111 366.556 99.9189 368.957C100.291 370.487 100.062 372.102 99.278 373.468C98.4956 374.817 97.5437 376.06 96.4454 377.167L96.3451 377.542C91.211 374.5 86.3266 370.651 83.4906 365.4C80.6546 360.149 80.2587 353.267 83.7409 348.421" fill="#F2F2F2"/>
<path d="M476.295 74.8281C496.958 74.8281 513.709 58.0773 513.709 37.4141C513.709 16.7508 496.958 0 476.295 0C455.632 0 438.881 16.7508 438.881 37.4141C438.881 58.0773 455.632 74.8281 476.295 74.8281Z" fill="#5366C1"/>
<path d="M543.813 8.70829C525.68 6.25734 504.979 16.0581 500.279 33.7416C499.095 30.5975 496.942 27.9113 494.131 26.071C491.32 24.2308 487.996 23.3318 484.641 23.504C481.286 23.6762 478.072 24.9106 475.464 27.0289C472.856 29.1472 470.989 32.0397 470.133 35.2886L472.209 36.7754C511.066 45.1783 551.29 44.9965 590.069 36.2425C577.457 22.987 561.945 11.1592 543.813 8.70829Z" fill="#F0F0F0"/>
<path d="M466.051 58.5937C447.919 56.1427 427.217 65.9435 422.518 83.627C421.333 80.4829 419.18 77.7966 416.369 75.9564C413.558 74.1162 410.235 73.2172 406.879 73.3894C403.524 73.5616 400.31 74.796 397.702 76.9143C395.094 79.0326 393.227 81.9251 392.371 85.174L394.447 86.6607C433.304 95.0637 473.528 94.8818 512.308 86.1279C499.695 72.8723 484.183 61.0446 466.051 58.5937Z" fill="#F0F0F0"/>
<path d="M624.309 68.0263C624.234 68.0265 624.159 68.0149 624.088 67.9919C430.117 6.64889 259.158 14.6706 149.898 32.202C135.029 34.5869 120.12 37.3415 105.585 40.3899C101.874 41.1672 98.0246 42.0004 94.1431 42.868C89.5075 43.9003 84.9336 44.9635 80.5477 46.0266C78.6535 46.4751 76.7963 46.9272 74.9761 47.3828C72.219 48.0634 69.4214 48.7726 66.4225 49.5521C63.0714 50.4161 59.6667 51.3224 56.3006 52.2458C56.2883 52.2501 56.2757 52.2537 56.263 52.2566L56.2633 52.2573C52.4613 53.2953 48.6794 54.3636 45.0221 55.4303C43.0426 56.002 41.1312 56.5658 39.3004 57.1225C39.0959 57.1791 38.9146 57.2335 38.7309 57.2894L38.3376 57.409C38.1097 57.4785 37.8848 57.5466 37.6598 57.6111L37.6455 57.6154L37.6459 57.6161L37.0505 57.801C36.3406 58.0159 35.6478 58.2258 34.9665 58.435C16.9601 63.9858 7.06139 67.9347 6.9636 67.9733C6.87417 68.0092 6.77857 68.0271 6.68224 68.0259C6.5859 68.0248 6.49073 68.0048 6.40215 67.9669C6.31357 67.929 6.23332 67.8741 6.16598 67.8052C6.09864 67.7363 6.04554 67.6548 6.00969 67.5653C5.97385 67.4759 5.95597 67.3803 5.95708 67.284C5.95818 67.1876 5.97825 67.0925 6.01614 67.0039C6.05402 66.9153 6.10898 66.8351 6.17788 66.7677C6.24678 66.7004 6.32827 66.6473 6.41769 66.6114C6.5162 66.5727 16.4633 62.6038 34.5352 57.0322C35.219 56.8223 35.9136 56.6124 36.6257 56.3968L37.1788 56.2248C37.1977 56.2177 37.2167 56.212 37.2361 56.2062C37.46 56.1425 37.6835 56.0744 37.9106 56.0056L38.3046 55.886C38.5009 55.8265 38.6943 55.7678 38.8924 55.7133C40.7107 55.1603 42.6285 54.595 44.613 54.0212C48.2717 52.9537 52.0573 51.8855 55.8622 50.846C55.874 50.8417 55.8861 50.8388 55.898 50.8353V50.8345C59.2759 49.9082 62.6932 48.9984 66.0549 48.1315C69.0585 47.3513 71.8615 46.6406 74.6233 45.9586C76.4512 45.5037 78.312 45.0507 80.2056 44.5996C84.5965 43.535 89.1797 42.4704 93.8235 41.4359C97.7112 40.5676 101.567 39.7323 105.284 38.9542C119.841 35.9009 134.773 33.1419 149.665 30.7534C259.082 13.1969 430.286 5.16232 624.53 66.5935C624.697 66.6462 624.839 66.7569 624.932 66.9057C625.024 67.0545 625.061 67.2314 625.034 67.4045C625.007 67.5776 624.92 67.7355 624.787 67.8495C624.654 67.9636 624.484 68.0263 624.309 68.0263V68.0263Z" fill="#CCCCCC"/>
<path d="M192.93 307.998C192.676 307.256 192.249 306.584 191.683 306.04C191.475 305.846 191.249 305.672 191.008 305.519C189.094 304.242 186.233 303.956 184.413 305.519C184.23 305.678 184.061 305.852 183.907 306.04C183.364 306.707 182.807 307.36 182.234 307.998C181.295 309.069 180.334 310.104 179.329 311.109C179.043 311.388 178.757 311.674 178.464 311.953C178.295 312.121 178.126 312.283 177.957 312.444C177.312 313.06 176.652 313.654 175.984 314.241C175.632 314.557 175.28 314.865 174.92 315.166C174.385 315.613 173.849 316.061 173.306 316.494C173.255 316.53 173.204 316.567 173.152 316.611C173.138 316.618 173.13 316.633 173.116 316.64C173.108 316.64 173.101 316.64 173.094 316.655C173.074 316.663 173.056 316.675 173.042 316.692C172.881 316.802 172.771 316.875 172.69 316.941C172.72 316.926 172.749 316.904 172.778 316.89C172.646 316.992 172.507 317.095 172.375 317.198C171.091 318.144 169.778 319.054 168.435 319.905C165.114 322.031 161.625 323.883 158.003 325.444C157.761 325.539 157.512 325.642 157.262 325.737C147.78 329.622 137.494 331.138 127.294 330.153C126.253 330.073 125.211 329.963 124.169 329.823C122.966 329.647 121.77 329.434 120.582 329.192C116.057 328.29 111.63 326.953 107.362 325.201C102.023 322.757 96.9452 319.778 92.2059 316.31C91.4723 315.789 90.7314 315.268 89.9904 314.762C90.8341 312.693 91.6631 310.625 92.47 308.541C92.8735 307.536 93.2623 306.531 93.6438 305.519C96.6443 297.72 99.4613 289.849 102.161 281.948C104.89 273.944 107.465 265.894 109.886 257.797C110.135 256.976 110.377 256.154 110.612 255.333C111.881 251.056 113.099 246.769 114.266 242.472C114.376 242.054 114.493 241.643 114.596 241.225C114.933 239.993 115.263 238.76 115.586 237.528C116.32 234.747 114.662 231.424 111.742 230.757C110.336 230.396 108.845 230.596 107.584 231.313C106.322 232.03 105.388 233.209 104.978 234.601C104.663 235.789 104.347 236.97 104.024 238.159C102.476 243.903 100.848 249.628 99.1385 255.333C98.8891 256.154 98.6397 256.976 98.3903 257.797C94.6195 270.225 90.4795 282.527 85.9702 294.705C85.4274 296.18 84.8772 297.65 84.3196 299.114C84.0482 299.833 83.7768 300.552 83.498 301.271C82.9625 302.687 82.4123 304.103 81.8621 305.519C81.5466 306.348 81.2238 307.177 80.901 307.998C80.6883 308.519 80.4829 309.04 80.2775 309.554C78.1858 308.803 76.0187 308.281 73.8144 307.998L73.4622 307.954C71.7532 307.749 70.0249 307.764 68.3196 307.998C65.7674 308.296 63.3118 309.151 61.1264 310.502C58.9409 311.854 57.079 313.668 55.6722 315.819C52.1729 321.328 52.2169 329.207 57.1248 333.887C62.1793 338.707 69.8309 338.671 75.7804 335.655C78.9333 333.95 81.5918 331.458 83.498 328.422C84.2283 327.322 84.8993 326.183 85.5081 325.011C85.6621 325.113 85.8162 325.216 85.9702 325.326C86.5571 325.737 87.144 326.155 87.7236 326.566C91.1004 329.012 94.6589 331.198 98.3683 333.102C106.344 337.068 114.929 339.664 123.766 340.783C123.964 340.805 124.155 340.835 124.353 340.857C125.328 340.981 126.311 341.077 127.294 341.157C141.396 342.22 155.515 339.334 168.068 332.824C169.132 332.273 170.186 331.696 171.23 331.092C172.852 330.153 174.436 329.156 175.984 328.099C176.828 327.527 177.649 326.947 178.464 326.339C182.022 323.718 185.339 320.784 188.375 317.572C189.526 316.361 190.629 315.112 191.683 313.823C192.68 312.769 193.254 311.385 193.297 309.935C193.292 309.273 193.167 308.617 192.93 307.998V307.998ZM71.4521 325.473C71.6062 325.363 71.7603 325.246 71.907 325.128C71.863 325.238 71.6502 325.363 71.4522 325.473H71.4521ZM73.807 323.103C73.6383 323.294 73.4842 323.485 73.3155 323.676C72.8022 324.25 72.2507 324.789 71.6649 325.29C71.5842 325.363 71.4962 325.436 71.4081 325.502C71.4072 325.502 71.4062 325.502 71.4053 325.503C71.4044 325.503 71.4036 325.504 71.4029 325.504C71.4022 325.505 71.4017 325.506 71.4013 325.507C71.4009 325.508 71.4008 325.509 71.4008 325.51C71.2948 325.557 71.1919 325.611 71.0926 325.671C70.7772 325.862 70.4544 326.038 70.1243 326.199C69.4779 326.437 68.813 326.621 68.1362 326.749C67.6162 326.787 67.0943 326.792 66.5736 326.764H66.559C66.1996 326.684 65.8446 326.586 65.4952 326.471C65.3192 326.383 65.1504 326.28 64.9817 326.177C64.9157 326.118 64.857 326.06 64.8203 326.023C64.7486 325.958 64.6824 325.887 64.6223 325.81C64.6223 325.809 64.6221 325.808 64.6218 325.808C64.6214 325.807 64.6209 325.806 64.6202 325.805C64.6195 325.804 64.6187 325.804 64.6178 325.804C64.6169 325.803 64.6159 325.803 64.6149 325.803C64.5342 325.656 64.4462 325.51 64.3655 325.363C64.3613 325.359 64.3587 325.354 64.3582 325.348C64.2995 325.165 64.2481 324.974 64.2041 324.783C64.1882 324.448 64.1906 324.113 64.2114 323.778C64.3099 323.31 64.4423 322.849 64.6076 322.399C64.7561 322.08 64.9252 321.772 65.1138 321.475C65.1285 321.445 65.2018 321.328 65.2825 321.196C65.2899 321.189 65.2899 321.189 65.2899 321.181C65.3999 321.057 65.51 320.925 65.6273 320.807C65.8254 320.587 66.0382 320.396 66.2509 320.198C66.6647 319.927 67.0933 319.68 67.5347 319.457C68.2351 319.209 68.9537 319.015 69.6842 318.878C70.7614 318.792 71.844 318.802 72.9194 318.907C73.938 319.084 74.943 319.331 75.9272 319.648C75.3307 320.806 74.6516 321.919 73.8951 322.979C73.8657 323.023 73.8364 323.067 73.807 323.103V323.103ZM65.6493 320.69C65.5847 320.793 65.5084 320.889 65.4219 320.976C65.4801 320.868 65.5571 320.771 65.6493 320.69V320.69Z" fill="#3F3D56"/>
<path d="M170.879 233.075C170.813 235.378 170.746 237.682 170.68 239.985C170.541 245.099 170.397 250.214 170.248 255.333C170.094 261.091 169.932 266.848 169.763 272.602C169.683 275.573 169.6 278.544 169.514 281.515C169.287 289.519 169.062 297.52 168.839 305.519C168.817 306.348 168.788 307.169 168.766 307.998C168.656 311.967 168.546 315.936 168.436 319.905C168.311 324.211 168.189 328.517 168.069 332.824C167.981 336.051 167.89 339.282 167.797 342.515C167.137 365.939 166.477 389.363 165.817 412.787C165.789 414.238 165.2 415.621 164.174 416.647C163.148 417.673 161.765 418.261 160.315 418.289C158.859 418.277 157.466 417.694 156.437 416.665C155.408 415.635 154.824 414.243 154.812 412.787C155.179 399.611 155.551 386.436 155.928 373.26C156.258 361.346 156.593 349.433 156.933 337.519C157.043 333.594 157.153 329.667 157.263 325.737C157.431 319.824 157.598 313.911 157.762 307.998C157.784 307.169 157.813 306.348 157.835 305.519C157.85 304.792 157.872 304.074 157.894 303.347C158.216 291.866 158.539 280.383 158.862 268.897C158.994 264.378 159.121 259.856 159.243 255.333C159.39 250.175 159.537 245.02 159.684 239.868C159.75 237.601 159.808 235.342 159.874 233.075C159.902 231.624 160.491 230.241 161.517 229.215C162.543 228.189 163.926 227.601 165.376 227.573C166.832 227.584 168.225 228.168 169.254 229.197C170.283 230.227 170.867 231.619 170.879 233.075V233.075Z" fill="#3F3D56"/>
<path d="M472.704 234.602C466.935 256.448 460.039 277.982 452.045 299.116C449.839 304.946 447.582 310.764 445.17 316.511L445.725 315.197C444.648 317.935 443.273 320.546 441.624 322.982C441.512 323.139 441.398 323.295 441.282 323.449C441.852 322.72 441.96 322.576 441.607 323.017C441.42 323.237 441.236 323.459 441.043 323.674C440.53 324.249 439.979 324.789 439.394 325.29C439.246 325.416 439.097 325.539 438.945 325.66L439.633 325.125C439.553 325.314 438.992 325.564 438.818 325.67C438.253 326.011 437.663 326.31 437.054 326.564L438.368 326.009C437.37 326.412 436.328 326.697 435.264 326.861L436.727 326.664C435.681 326.809 434.622 326.82 433.574 326.698L435.036 326.895C434.179 326.777 433.34 326.551 432.539 326.222L433.853 326.777C433.426 326.59 433.014 326.371 432.621 326.119C432.422 325.989 431.81 325.526 432.61 326.137C433.442 326.773 432.717 326.192 432.546 326.023C432.404 325.882 432.275 325.729 432.135 325.586C431.488 324.923 432.866 326.728 432.427 325.952C432.192 325.563 431.976 325.162 431.782 324.751L432.337 326.066C432.085 325.44 431.905 324.788 431.803 324.121L431.999 325.583C431.894 324.754 431.894 323.915 431.997 323.086L431.801 324.548C431.935 323.622 432.18 322.716 432.53 321.848L431.976 323.163C432.22 322.579 432.509 322.016 432.84 321.477C432.992 321.198 433.171 320.935 433.374 320.691C433.41 320.702 432.444 321.8 432.957 321.246C433.091 321.101 433.216 320.948 433.352 320.804C433.569 320.574 433.802 320.364 434.031 320.146C434.797 319.416 432.959 320.854 433.843 320.277C434.484 319.856 435.158 319.488 435.86 319.177L434.545 319.732C435.72 319.249 436.952 318.919 438.21 318.749L436.747 318.945C438.323 318.764 439.916 318.783 441.487 319.001L440.024 318.805C442.014 319.107 443.959 319.654 445.814 320.433L444.499 319.879C448.453 321.576 451.955 324.097 455.451 326.568C458.827 329.013 462.385 331.197 466.093 333.102C474.069 337.068 482.655 339.665 491.492 340.785C504.165 342.338 517.026 340.683 528.893 335.972C540.76 331.261 551.255 323.646 559.413 313.824C560.409 312.768 560.982 311.384 561.025 309.933C561.014 308.476 560.436 307.08 559.413 306.043C557.395 304.19 553.582 303.667 551.632 306.043C549.785 308.298 547.799 310.436 545.685 312.445C544.698 313.381 543.686 314.288 542.646 315.166C542.053 315.668 541.451 316.16 540.841 316.642C540.552 316.87 539.654 317.477 541.034 316.497C540.718 316.722 540.414 316.967 540.102 317.197C535.482 320.603 530.475 323.451 525.186 325.681L526.5 325.127C520.825 327.508 514.864 329.141 508.768 329.985L510.231 329.789C503.96 330.614 497.607 330.604 491.338 329.761L492.8 329.957C486.533 329.096 480.403 327.427 474.565 324.99L475.879 325.545C470.245 323.052 464.899 319.955 459.933 316.308C457.349 314.395 454.624 312.679 451.781 311.177C448.469 309.486 444.882 308.396 441.189 307.958C434.265 307.143 427.209 309.84 423.402 315.822C419.898 321.328 419.944 329.206 424.85 333.888C429.903 338.709 437.555 338.668 443.51 335.652C449.244 332.748 452.689 326.713 455.112 321.023C460.563 308.218 465.39 295.116 469.886 281.949C474.335 268.921 478.37 255.762 481.99 242.471C482.438 240.825 482.88 239.177 483.315 237.527C484.05 234.748 482.39 231.424 479.472 230.759C478.066 230.397 476.574 230.595 475.312 231.312C474.049 232.029 473.114 233.209 472.704 234.602L472.704 234.602Z" fill="#3F3D56"/>
<path d="M527.604 233.075L525.623 303.349L523.653 373.258L522.539 412.787C522.551 414.243 523.135 415.635 524.164 416.664C525.193 417.693 526.586 418.277 528.041 418.29C529.492 418.261 530.875 417.673 531.901 416.647C532.927 415.621 533.515 414.238 533.543 412.787L535.524 342.513L537.494 272.604L538.608 233.075C538.595 231.619 538.012 230.227 536.982 229.198C535.953 228.169 534.561 227.585 533.106 227.573C531.655 227.601 530.272 228.189 529.246 229.215C528.22 230.241 527.632 231.624 527.604 233.075V233.075Z" fill="#3F3D56"/>
<path opacity="0.2" d="M337.161 393.167H338.87V315.374H378.726V313.67H338.87V280.845H369.649C369.197 280.271 368.733 279.704 368.256 279.145H338.87V257.465C338.304 257.224 337.735 256.992 337.161 256.772V279.145H303.67V251.367C303.096 251.393 302.531 251.432 301.962 251.481V279.145H275.244V258.42C274.67 258.674 274.105 258.941 273.544 259.221V279.145H251.084V280.845H273.544V313.67H251.084V315.374H273.544V393.167H275.244V315.374C278.753 315.373 282.227 316.064 285.469 317.406C288.711 318.748 291.657 320.716 294.138 323.198C296.619 325.679 298.587 328.624 299.929 331.866C301.272 335.108 301.963 338.583 301.962 342.092V393.167H303.67V315.374H337.161V393.167ZM275.244 313.67V280.845H301.962V313.67H275.244ZM303.67 313.67V280.845H304.341C308.651 280.845 312.919 281.694 316.901 283.344C320.883 284.994 324.501 287.412 327.549 290.46C330.597 293.508 333.014 297.126 334.663 301.109C336.313 305.091 337.161 309.359 337.161 313.67H303.67Z" fill="black"/>
<path d="M326.728 369.842C324.577 379.436 319.425 388.096 312.019 394.564C311.476 395.034 310.933 395.489 310.368 395.936C308.996 396.061 307.634 396.188 306.282 396.318C305.16 396.42 304.052 396.53 302.951 396.633L302.753 396.655L302.614 395.452L302.056 390.581C299.894 387.05 298.553 383.077 298.134 378.957C297.715 374.838 298.228 370.677 299.636 366.782C301.572 361.559 305.079 356.945 308.527 352.367C313.288 346.043 317.917 339.793 318.086 332.083C320.429 335.081 322.376 338.367 323.881 341.862C322.461 342.53 321.185 343.47 320.125 344.627C319.825 344.958 319.524 345.42 319.729 345.816C319.905 346.153 320.345 346.234 320.727 346.278C321.644 346.373 322.568 346.469 323.485 346.564C324.219 346.645 324.952 346.718 325.686 346.799C326.574 349.712 327.175 352.705 327.483 355.734C327.978 360.447 327.723 365.209 326.728 369.842V369.842Z" fill="#3F3D56"/>
<path d="M351.083 350.614C346.755 353.761 344.224 358.287 342.258 363.276C340.243 363.921 338.43 365.079 336.998 366.636C336.697 366.966 336.396 367.428 336.601 367.824C336.778 368.162 337.218 368.242 337.599 368.286C338.516 368.382 339.441 368.477 340.358 368.573C338.391 374.471 336.587 380.574 333.109 385.556C330.797 388.844 327.782 391.578 324.284 393.559C323.33 394.103 322.346 394.59 321.335 395.019C317.608 395.305 313.952 395.611 310.368 395.936C308.996 396.061 307.634 396.188 306.281 396.318C305.159 396.42 304.051 396.53 302.951 396.633C302.943 396.23 302.943 395.826 302.951 395.423C303.183 384.674 307.137 374.339 314.138 366.181C314.468 365.799 314.806 365.425 315.151 365.051C318.698 361.263 322.869 358.111 327.483 355.734C334.752 351.954 342.9 350.187 351.083 350.614V350.614Z" fill="#5366C1"/>
<path d="M307.549 392.554L306.705 395.048L306.28 396.318C305.158 396.42 304.05 396.53 302.949 396.633L302.751 396.655C301.534 396.78 300.323 396.904 299.113 397.029C298.797 396.662 298.482 396.288 298.174 395.907C290.516 386.634 286.841 374.707 287.95 362.733C289.059 350.759 294.863 339.71 304.094 332.002C303.125 337.071 304.255 341.928 306.111 346.748C305.913 346.828 305.722 346.909 305.539 346.997C304.119 347.666 302.843 348.605 301.783 349.763C301.482 350.093 301.181 350.555 301.387 350.951C301.563 351.289 302.003 351.369 302.385 351.413C303.302 351.509 304.226 351.604 305.143 351.699C305.877 351.78 306.61 351.853 307.344 351.934C307.689 351.971 308.033 352.008 308.378 352.044C308.429 352.154 308.474 352.257 308.525 352.367C310.616 356.901 312.868 361.456 314.137 366.181C314.455 367.366 314.705 368.569 314.885 369.783C315.45 373.886 315.084 378.063 313.814 382.005C312.544 385.947 310.403 389.553 307.549 392.554V392.554Z" fill="#5366C1"/>
<path d="M381.392 286.152C375.077 273.833 365.293 263.468 353.785 255.851C342.241 248.245 328.994 243.613 315.225 242.368C313.42 242.204 311.611 242.108 309.797 242.079C307.654 242.047 275.415 251.346 264.616 258.939C253.822 266.44 244.943 276.373 238.695 287.937C232.458 299.564 229.39 312.627 229.8 325.815C230.335 339.083 234.033 352.03 240.586 363.578C247.05 375.089 256.228 384.847 267.322 392.003C278.574 399.182 289.877 418.219 303.162 418.891C316.547 419.568 331.812 401.611 344.02 396.158C356.228 390.661 366.782 382.059 374.63 371.212C382.257 360.582 387.191 348.26 389.008 335.303C390.897 322.037 390.016 308.356 385.486 295.677C384.324 292.419 382.956 289.237 381.392 286.152C380.087 283.581 376.26 282.634 373.865 284.178C372.63 284.938 371.737 286.144 371.369 287.546C371.001 288.948 371.188 290.438 371.891 291.706C372.657 293.216 373.37 294.751 374.029 296.311L373.475 294.997C375.969 300.994 377.665 307.293 378.519 313.732L378.323 312.269C379.232 319.255 379.215 326.33 378.274 333.311L378.471 331.848C377.52 338.829 375.657 345.655 372.929 352.15L373.483 350.836C372.08 354.15 370.445 357.361 368.589 360.445C367.649 362.003 366.651 363.525 365.596 365.009C365.132 365.661 364.654 366.301 364.173 366.94C363.545 367.773 365.029 365.851 364.38 366.669C364.27 366.808 364.16 366.947 364.049 367.086C363.716 367.503 363.378 367.915 363.035 368.324C360.748 371.053 358.252 373.6 355.569 375.942C354.901 376.525 354.222 377.095 353.532 377.652C353.188 377.929 352.848 378.219 352.489 378.477C352.503 378.467 353.648 377.597 352.97 378.102C352.757 378.261 352.546 378.422 352.332 378.58C350.909 379.635 349.448 380.635 347.949 381.582C344.499 383.756 340.879 385.648 337.125 387.241L338.439 386.686C331.963 389.412 325.156 391.275 318.194 392.226L319.656 392.029C312.698 392.97 305.645 392.982 298.683 392.067L300.146 392.263C293.818 391.413 287.629 389.74 281.736 387.286L283.05 387.841C279.636 386.399 276.345 384.684 273.208 382.712C271.655 381.734 270.143 380.695 268.672 379.596C268.462 379.439 268.254 379.28 268.044 379.122C267.373 378.616 268.527 379.496 268.536 379.502C268.146 379.222 267.77 378.922 267.41 378.604C266.699 378.025 265.999 377.433 265.311 376.827C262.556 374.401 259.983 371.775 257.613 368.971C257.02 368.269 256.439 367.558 255.871 366.835C255.625 366.523 255.177 365.889 256.168 367.223C256.037 367.048 255.902 366.876 255.771 366.701C255.454 366.282 255.142 365.859 254.835 365.433C253.757 363.943 252.733 362.415 251.762 360.851C249.569 357.311 247.654 353.605 246.036 349.768L246.591 351.082C243.944 344.783 242.133 338.164 241.206 331.394L241.403 332.857C240.566 326.617 240.554 320.294 241.367 314.05L241.171 315.513C242.004 309.467 243.63 303.557 246.008 297.936L245.454 299.251C246.95 295.732 248.714 292.333 250.732 289.085C251.742 287.46 252.813 285.874 253.944 284.328C254.201 283.977 254.46 283.628 254.723 283.281C254.961 282.967 255.614 282.185 254.499 283.566C254.608 283.43 254.714 283.291 254.821 283.155C255.442 282.368 256.078 281.594 256.728 280.833C259.192 277.949 261.86 275.247 264.713 272.748C265.433 272.116 266.166 271.498 266.909 270.892C267.247 270.618 267.587 270.345 267.93 270.076C268.067 269.968 268.206 269.863 268.342 269.754C266.877 270.92 267.935 270.072 268.267 269.822C269.8 268.674 271.374 267.583 272.988 266.55C276.578 264.254 280.354 262.264 284.276 260.602L282.962 261.156C288.655 258.766 313.877 253.124 318.464 253.74L317.001 253.543C323.744 254.484 330.334 256.305 336.603 258.959L335.289 258.404C338.466 259.753 341.554 261.304 344.533 263.047C346.021 263.92 347.48 264.84 348.91 265.808C349.587 266.266 350.256 266.734 350.919 267.212C351.25 267.452 351.579 267.693 351.907 267.938C352.088 268.074 352.269 268.211 352.45 268.347C353.213 268.919 351.4 267.52 352.2 268.152C354.874 270.253 357.415 272.52 359.805 274.94C360.98 276.136 362.114 277.369 363.207 278.641C363.768 279.294 364.317 279.956 364.855 280.627C365.122 280.961 366.033 282.169 364.917 280.689C365.19 281.051 365.465 281.41 365.735 281.774C368.053 284.912 370.112 288.234 371.891 291.706C373.206 294.272 377.016 295.229 379.419 293.68C380.653 292.92 381.547 291.714 381.915 290.312C382.283 288.91 382.095 287.42 381.392 286.152Z" fill="#3F3D56"/>
<path d="M317.283 375.942C316.715 375.968 316.153 375.819 315.673 375.515C315.192 375.211 314.817 374.766 314.598 374.242C314.378 373.717 314.326 373.138 314.446 372.582C314.567 372.027 314.856 371.522 315.274 371.136C315.344 370.858 315.394 370.658 315.464 370.381C315.439 370.32 315.413 370.26 315.388 370.199C312.835 364.112 296.545 381.081 295.841 386.802C295.531 389.331 295.662 391.894 296.228 394.378C290.951 382.868 288.211 370.358 288.194 357.696C288.193 354.519 288.369 351.344 288.722 348.186C289.014 345.597 289.42 343.027 289.938 340.475C292.766 326.63 298.838 313.652 307.656 302.609C312.698 302.891 317.118 302.122 317.544 292.349C317.62 290.611 318.91 289.106 319.194 287.393C318.712 287.456 318.223 287.496 317.742 287.527C317.592 287.535 317.434 287.543 317.284 287.551L317.227 287.553C316.698 287.577 316.174 287.447 315.717 287.18C315.259 286.912 314.889 286.518 314.651 286.046C314.413 285.573 314.316 285.041 314.373 284.514C314.43 283.988 314.637 283.489 314.971 283.078C315.179 282.822 315.387 282.566 315.595 282.311C315.911 281.916 316.234 281.529 316.55 281.135C316.586 281.097 316.621 281.058 316.653 281.016C317.016 280.566 317.379 280.124 317.742 279.675C317.079 278.646 316.188 277.784 315.137 277.157C311.499 275.026 306.48 276.502 303.852 279.793C301.216 283.084 300.718 287.701 301.634 291.813C302.534 295.311 304.023 298.631 306.038 301.63C305.84 301.883 305.635 302.128 305.438 302.38C301.831 307.018 298.688 311.998 296.052 317.249C296.798 311.425 287.681 290.393 284.155 285.938C279.92 280.587 271.235 282.923 270.489 289.706C270.482 289.771 270.475 289.837 270.468 289.903C270.992 290.198 271.504 290.512 272.006 290.844C272.636 291.265 273.124 291.866 273.407 292.569C273.689 293.272 273.752 294.045 273.589 294.785C273.425 295.524 273.041 296.197 272.488 296.716C271.935 297.234 271.238 297.573 270.489 297.688L270.413 297.7C263.403 307.709 285.875 333.76 291.5 327.911C288.853 335.414 287.192 343.23 286.56 351.161C286.202 355.841 286.223 360.541 286.623 365.217L286.599 365.051C285.35 354.867 263.908 339.725 257.647 340.987C254.04 341.713 250.487 341.548 251.035 345.186C251.043 345.244 251.052 345.303 251.061 345.361C252.033 345.756 252.979 346.212 253.894 346.726C254.418 347.021 254.931 347.335 255.432 347.667C256.063 348.088 256.551 348.689 256.833 349.392C257.116 350.096 257.179 350.868 257.015 351.608C256.851 352.348 256.468 353.021 255.915 353.539C255.362 354.057 254.665 354.396 253.916 354.512L253.839 354.523C253.784 354.531 253.737 354.539 253.681 354.547C250.49 365.526 274.155 383.246 288.541 377.608H288.549C289.974 383.803 292.04 389.833 294.713 395.602H316.731C316.81 395.357 316.881 395.105 316.952 394.86C314.914 394.988 312.868 394.866 310.86 394.497C312.493 392.492 314.127 390.472 315.761 388.467C315.797 388.43 315.831 388.39 315.863 388.349C316.692 387.323 317.529 386.305 318.357 385.279L318.358 385.278C318.402 382.133 318.041 378.995 317.284 375.943L317.283 375.942ZM292.069 326.341L292.08 326.325L292.069 326.356V326.341ZM287.191 370.308L287.002 369.881C287.01 369.574 287.01 369.266 287.002 368.95C287.002 368.863 286.986 368.777 286.986 368.69C287.057 369.234 287.12 369.779 287.199 370.323L287.191 370.308Z" fill="#3F3D56"/>
<path d="M69.8744 330.124C74.3312 330.124 77.9441 326.511 77.9441 322.054C77.9441 317.598 74.3312 313.985 69.8744 313.985C65.4176 313.985 61.8047 317.598 61.8047 322.054C61.8047 326.511 65.4176 330.124 69.8744 330.124Z" fill="#3F3D56"/>
<path d="M166.71 418.157C171.167 418.157 174.78 414.544 174.78 410.087C174.78 405.631 171.167 402.018 166.71 402.018C162.254 402.018 158.641 405.631 158.641 410.087C158.641 414.544 162.254 418.157 166.71 418.157Z" fill="#3F3D56"/>
<path d="M534.249 418.157C538.706 418.157 542.319 414.544 542.319 410.087C542.319 405.631 538.706 402.018 534.249 402.018C529.793 402.018 526.18 405.631 526.18 410.087C526.18 414.544 529.793 418.157 534.249 418.157Z" fill="#3F3D56"/>
<path d="M554.056 315.452C558.513 315.452 562.126 311.839 562.126 307.382C562.126 302.925 558.513 299.312 554.056 299.312C549.599 299.312 545.986 302.925 545.986 307.382C545.986 311.839 549.599 315.452 554.056 315.452Z" fill="#3F3D56"/>
<path d="M530.581 240.624C535.038 240.624 538.651 237.011 538.651 232.554C538.651 228.097 535.038 224.484 530.581 224.484C526.125 224.484 522.512 228.097 522.512 232.554C522.512 237.011 526.125 240.624 530.581 240.624Z" fill="#3F3D56"/>
<path d="M193.856 307.382C193.851 309.444 193.054 311.424 191.629 312.914C190.205 314.404 188.262 315.289 186.203 315.387C184.144 315.484 182.126 314.786 180.568 313.437C179.009 312.089 178.028 310.192 177.829 308.141C177.629 306.089 178.226 304.039 179.496 302.415C180.766 300.792 182.611 299.718 184.65 299.417C186.69 299.116 188.766 299.611 190.451 300.798C192.136 301.986 193.3 303.776 193.702 305.798C193.805 306.319 193.857 306.85 193.856 307.382V307.382Z" fill="#3F3D56"/>
<path d="M355.249 264.099C359.706 264.099 363.319 260.486 363.319 256.03C363.319 251.573 359.706 247.96 355.249 247.96C350.793 247.96 347.18 251.573 347.18 256.03C347.18 260.486 350.793 264.099 355.249 264.099Z" fill="#3F3D56"/>
<path d="M275.287 256.03C275.282 258.091 274.485 260.071 273.061 261.561C271.636 263.051 269.694 263.937 267.635 264.034C265.576 264.131 263.558 263.434 261.999 262.085C260.44 260.736 259.46 258.84 259.26 256.788C259.061 254.736 259.658 252.687 260.928 251.063C262.197 249.439 264.043 248.366 266.082 248.065C268.121 247.764 270.198 248.258 271.883 249.446C273.568 250.633 274.731 252.423 275.133 254.445C275.237 254.967 275.288 255.498 275.287 256.03V256.03Z" fill="#3F3D56"/>
<path d="M171.113 232.554C171.109 234.615 170.311 236.596 168.887 238.086C167.463 239.576 165.52 240.461 163.461 240.559C161.402 240.656 159.384 239.958 157.825 238.609C156.267 237.261 155.286 235.364 155.087 233.313C154.887 231.261 155.484 229.211 156.754 227.587C158.024 225.964 159.869 224.89 161.908 224.589C163.947 224.288 166.024 224.783 167.709 225.97C169.394 227.158 170.558 228.948 170.959 230.97C171.063 231.491 171.114 232.022 171.113 232.554V232.554Z" fill="#3F3D56"/>
<path d="M439.615 333.058C444.071 333.058 447.684 329.446 447.684 324.989C447.684 320.532 444.071 316.919 439.615 316.919C435.158 316.919 431.545 320.532 431.545 324.989C431.545 329.446 435.158 333.058 439.615 333.058Z" fill="#3F3D56"/>
<path d="M312.699 259.698C319.181 259.698 324.436 254.442 324.436 247.96C324.436 241.477 319.181 236.222 312.699 236.222C306.216 236.222 300.961 241.477 300.961 247.96C300.961 254.442 306.216 259.698 312.699 259.698Z" fill="#3F3D56"/>
<path d="M630.127 418.774L0.873489 418.999C0.75878 418.999 0.645191 418.977 0.539214 418.933C0.433237 418.889 0.33695 418.824 0.255838 418.743C0.174727 418.662 0.110378 418.566 0.0664811 418.46C0.0225839 418.354 0 418.24 0 418.126C0 418.011 0.0225839 417.897 0.0664811 417.791C0.110378 417.685 0.174727 417.589 0.255838 417.508C0.33695 417.427 0.433237 417.363 0.539214 417.319C0.645191 417.275 0.75878 417.252 0.873489 417.252L630.127 417.027C630.358 417.027 630.579 417.12 630.743 417.283C630.906 417.447 630.998 417.669 630.998 417.9C630.998 418.131 630.906 418.353 630.743 418.517C630.579 418.681 630.358 418.773 630.127 418.774V418.774Z" fill="#CACACA"/>
</g>
<defs>
<clipPath id="clip0_801_1147">
<rect width="631" height="418.999" fill="white"/>
</clipPath>
</defs>
</svg>
