<svg width="76" height="76" viewBox="0 0 76 76" fill="none" xmlns="http://www.w3.org/2000/svg">
<path fill-rule="evenodd" clip-rule="evenodd" d="M75.988 37.9999V0H62.4216V37.9999C62.5033 41.1787 61.932 44.3413 60.7415 47.3014C59.5509 50.2615 57.7651 52.9592 55.4893 55.2357C53.2134 57.5121 50.4936 59.3212 47.49 60.5565C44.4863 61.7917 41.2596 62.4281 38 62.4281C34.7404 62.4281 31.5137 61.7917 28.5101 60.5565C25.5064 59.3212 22.7866 57.5121 20.5107 55.2357C18.2349 52.9592 16.4491 50.2615 15.2585 47.3014C14.068 44.3413 13.4967 41.1787 13.5784 37.9999V0H0.0119881V37.9999C-0.115364 42.9447 0.773051 47.8643 2.62488 52.469C4.4767 57.0737 7.25449 61.2702 10.7946 64.8115C14.3347 68.3527 18.5656 71.167 23.2379 73.0885C27.9102 75.0101 32.9294 76 38 76C43.0706 76 48.0898 75.0101 52.7621 73.0885C57.4345 71.167 61.6653 68.3527 65.2054 64.8115C68.7455 61.2702 71.5233 57.0737 73.3751 52.469C75.227 47.8643 76.1154 42.9447 75.988 37.9999ZM36 38V25H23V21H36V8H40V21H53V25H40V38H36Z" fill="white"/>
<path fill-rule="evenodd" clip-rule="evenodd" d="M75.988 37.9999V0H62.4216V37.9999C62.5033 41.1787 61.932 44.3413 60.7415 47.3014C59.5509 50.2615 57.7651 52.9592 55.4893 55.2357C53.2134 57.5121 50.4936 59.3212 47.49 60.5565C44.4863 61.7917 41.2596 62.4281 38 62.4281C34.7404 62.4281 31.5137 61.7917 28.5101 60.5565C25.5064 59.3212 22.7866 57.5121 20.5107 55.2357C18.2349 52.9592 16.4491 50.2615 15.2585 47.3014C14.068 44.3413 13.4967 41.1787 13.5784 37.9999V0H0.0119881V37.9999C-0.115364 42.9447 0.773051 47.8643 2.62488 52.469C4.4767 57.0737 7.25449 61.2702 10.7946 64.8115C14.3347 68.3527 18.5656 71.167 23.2379 73.0885C27.9102 75.0101 32.9294 76 38 76C43.0706 76 48.0898 75.0101 52.7621 73.0885C57.4345 71.167 61.6653 68.3527 65.2054 64.8115C68.7455 61.2702 71.5233 57.0737 73.3751 52.469C75.227 47.8643 76.1154 42.9447 75.988 37.9999ZM36 38V25H23V21H36V8H40V21H53V25H40V38H36Z" fill="url(#paint0_linear_243_366)"/>
<defs>
<linearGradient id="paint0_linear_243_366" x1="0" y1="0" x2="76.6755" y2="75.9153" gradientUnits="userSpaceOnUse">
<stop stop-color="#283B92"/>
<stop offset="0.410648" stop-color="#0A75BA"/>
<stop offset="1" stop-color="#B44B9A"/>
</linearGradient>
</defs>
</svg>
